<svg width="100" height="84" viewBox="0 0 100 84" fill="none" xmlns="http://www.w3.org/2000/svg">
<path fill-rule="evenodd" clip-rule="evenodd" d="M38.7965 36.5743C38.2219 33.8237 38.926 26.137 46.3456 17.3946C48.862 14.1242 53.9371 6.06609 54.1102 0C54.7566 3.49324 57.3884 11.9531 61.8735 16.949C64.3899 20.4422 69.379 28.4565 69.2072 32.5598C69.2033 32.6381 69.1931 32.715 69.1751 32.7906C69.338 33.7282 69.4226 34.695 69.4226 35.6817C69.4226 44.5501 62.5674 51.7395 54.1102 51.7395C45.939 51.7395 39.262 45.0276 38.8208 36.5743C38.8131 36.5743 38.8054 36.5743 38.7965 36.5743Z" fill="url(#paint0_linear)"/>
<path d="M46.3988 17.3864C38.928 26.1246 38.219 33.8077 38.7975 36.557C48.9326 36.9282 69.2483 38.1578 69.4226 34.0564C69.5957 29.955 64.5677 20.4326 62.034 16.941C57.5179 11.9475 54.8679 3.49159 54.217 0C54.0427 6.06323 48.9326 14.1175 46.3988 17.3864Z" fill="url(#paint1_linear)"/>
<path d="M54.0973 51.8761C62.6336 51.8761 69.5536 44.6616 69.5536 35.762C69.5536 26.8624 62.6336 19.6479 54.0973 19.6479C45.561 19.6479 38.6409 26.8624 38.6409 35.762C38.6409 44.6616 45.561 51.8761 54.0973 51.8761Z" fill="url(#paint2_linear)"/>
<path d="M56.8862 50.3934C43.6934 51.1219 39.662 40.679 39.2958 35.3663C39.6476 39.9195 43.6934 43.7904 45.6719 45.1565C53.3687 50.1646 58.866 43.3354 60.4051 41.9693C61.9441 40.6032 63.0439 40.6032 64.583 41.5131C65.8134 42.2415 65.5349 43.942 65.242 44.7016C63.3067 48.5264 58.866 50.0888 56.8862 50.3934Z" fill="url(#paint3_linear)" fill-opacity="0.6"/>
<path d="M64.1898 56.2768C62.3559 56.5388 38.3199 50.2731 26.5312 47.1078C20.6367 44.8155 14.0875 49.4 6.88326 54.312C1.11989 58.2416 -0.102653 64.2453 0.00650459 66.7557C7.86566 68.0656 11.577 71.0127 12.4502 72.3226C24.5664 82.474 47.1615 82.8015 54.0383 83.7839C60.915 84.7663 96.9363 63.1536 97.9187 62.4986C98.9011 61.8437 101.193 58.5691 99.2285 55.2944C97.6567 52.6747 94.2072 53.1115 92.6792 53.6571C88.859 55.5125 78.5327 60.4029 67.7919 65.1184C57.0509 69.8339 42.577 64.4634 36.6826 61.1888C55.0207 67.4106 61.2425 66.1008 66.482 65.1184C70.6736 64.3325 71.2846 62.1712 71.0665 61.1888C71.7215 58.8965 66.482 55.9493 64.1898 56.2768Z" fill="#EDBA9F"/>
<g filter="url(#filter0_d)">
<ellipse cx="54.2774" cy="34.9029" rx="9.74209" ry="9.36057" fill="#EAEBEB"/>
<ellipse cx="54.2774" cy="34.9029" rx="9.74209" ry="9.36057" fill="url(#paint4_linear)"/>
<path fill-rule="evenodd" clip-rule="evenodd" d="M56.3452 28.6007H52.1175V32.7249H48.0277V36.9881H52.1175V41.1123H56.3452V36.9881H60.4351V32.7249H56.3452V28.6007Z" fill="#E70002"/>
</g>
<defs>
<filter id="filter0_d" x="40.5353" y="23.5423" width="25.4842" height="24.7211" filterUnits="userSpaceOnUse" color-interpolation-filters="sRGB">
<feFlood flood-opacity="0" result="BackgroundImageFix"/>
<feColorMatrix in="SourceAlpha" type="matrix" values="0 0 0 0 0 0 0 0 0 0 0 0 0 0 0 0 0 0 127 0"/>
<feOffset dx="-1" dy="1"/>
<feGaussianBlur stdDeviation="1.5"/>
<feColorMatrix type="matrix" values="0 0 0 0 0 0 0 0 0 0 0 0 0 0 0 0 0 0 0.25 0"/>
<feBlend mode="normal" in2="BackgroundImageFix" result="effect1_dropShadow"/>
<feBlend mode="normal" in="SourceGraphic" in2="effect1_dropShadow" result="shape"/>
</filter>
<linearGradient id="paint0_linear" x1="54.3257" y1="0.223069" x2="57.5537" y2="119.083" gradientUnits="userSpaceOnUse">
<stop offset="0.0260417" stop-color="#710D08"/>
<stop offset="0.299841" stop-color="#E0050B"/>
<stop offset="1" stop-color="#710D08"/>
</linearGradient>
<linearGradient id="paint1_linear" x1="54.0001" y1="3.34313" x2="54.0001" y2="13.8206" gradientUnits="userSpaceOnUse">
<stop stop-color="#7A1E1A"/>
<stop offset="1" stop-color="#E0050B"/>
</linearGradient>
<linearGradient id="paint2_linear" x1="53.226" y1="20.3191" x2="54.3766" y2="44.9359" gradientUnits="userSpaceOnUse">
<stop stop-color="#E0050B" stop-opacity="0"/>
<stop offset="1" stop-color="#700D08"/>
</linearGradient>
<linearGradient id="paint3_linear" x1="52.4886" y1="41.9693" x2="52.4886" y2="57.4501" gradientUnits="userSpaceOnUse">
<stop stop-color="#B63F27" stop-opacity="0.24"/>
<stop offset="1" stop-color="#7C2B18" stop-opacity="0.77"/>
</linearGradient>
<linearGradient id="paint4_linear" x1="54.2774" y1="25.5423" x2="54.2774" y2="44.2634" gradientUnits="userSpaceOnUse">
<stop stop-color="#FEFEFE"/>
<stop offset="1" stop-color="#E6E7E7"/>
</linearGradient>
</defs>
</svg>
