<svg width="22" height="16" viewBox="0 0 22 16" fill="none" xmlns="http://www.w3.org/2000/svg">
<path d="M21.2727 6.5H19.0909V4.5C19.0909 4.225 18.8455 4 18.5455 4H17.4545C17.1545 4 16.9091 4.225 16.9091 4.5V6.5H14.7273C14.4273 6.5 14.1818 6.725 14.1818 7V8C14.1818 8.275 14.4273 8.5 14.7273 8.5H16.9091V10.5C16.9091 10.775 17.1545 11 17.4545 11H18.5455C18.8455 11 19.0909 10.775 19.0909 10.5V8.5H21.2727C21.5727 8.5 21.8182 8.275 21.8182 8V7C21.8182 6.725 21.5727 6.5 21.2727 6.5ZM7.63636 8C10.0466 8 12 6.20937 12 4C12 1.79063 10.0466 0 7.63636 0C5.22614 0 3.27273 1.79063 3.27273 4C3.27273 6.20937 5.22614 8 7.63636 8ZM10.6909 9H10.1216C9.36477 9.31875 8.52273 9.5 7.63636 9.5C6.75 9.5 5.91136 9.31875 5.15114 9H4.58182C2.05227 9 0 10.8812 0 13.2V14.5C0 15.3281 0.732955 16 1.63636 16H13.6364C14.5398 16 15.2727 15.3281 15.2727 14.5V13.2C15.2727 10.8812 13.2205 9 10.6909 9Z" fill="#6B6B6B"/>
</svg>
