<svg width="107" height="89" viewBox="0 0 107 89" fill="none" xmlns="http://www.w3.org/2000/svg">
<g filter="url(#filter0_d)">
<path d="M57.1783 47.513C49.6743 47.6752 47.7646 46.8707 47.7476 46.4482L35.0213 56.1831L35.7312 84.4243H57.1276L56.6205 64.5997L57.6853 65.8672C59.1557 67.3037 62.0863 70.9273 62.0457 73.9289C62.0051 76.9305 69.0595 76.7682 72.5918 76.3119L63.7189 52.7353C61.204 48.5574 58.3106 47.513 57.1783 47.513Z" fill="white"/>
</g>
<g filter="url(#filter1_d)">
<path d="M24.2217 11.4129C22.5181 14.0494 21.9571 18.1563 21.8894 19.8802L22.4471 24.2913L48.9645 27.8405L54.0347 20.1337C54.1564 15.753 52.4967 13.1029 51.6517 12.3255C51.8139 12.0416 51.9897 11.0242 52.0573 10.5509C51.6923 10.916 51.1954 10.7706 50.9926 10.6523C52.3717 8.98929 52.4122 6.41024 52.2601 5.32858C51.5706 6.22095 49.5391 6.78205 48.6096 6.95106L49.0659 5.68351C44.1478 6.39334 43.5393 3.55401 32.689 4.06103C24.0088 4.46665 23.4274 9.13127 24.2217 11.4129Z" fill="#412413"/>
</g>
<g filter="url(#filter2_d)">
<path d="M102.778 33.5498L65.645 25.9629L56.0208 73.0664L93.1534 80.6533L102.778 33.5498Z" fill="#00616D"/>
</g>
<path d="M100.341 35.603L67.0302 28.797L58.3829 71.1197L91.6935 77.9257L100.341 35.603Z" fill="white"/>
<path fill-rule="evenodd" clip-rule="evenodd" d="M90.3243 44.9699L69.7051 40.7571L69.1924 43.2666L89.8116 47.4795L90.3243 44.9699ZM89.3634 49.647L71.383 45.9733L70.8702 48.4829L88.8506 52.1566L89.3634 49.647ZM72.1358 51.0006L88.4024 54.3241L87.8897 56.8337L71.623 53.5101L72.1358 51.0006ZM87.4414 59.0012L66.3288 54.6876L65.8161 57.1971L86.9287 61.5109L87.4414 59.0012ZM65.3978 59.5294L86.487 63.8383L85.9743 66.348L64.885 62.039L65.3978 59.5294ZM95.297 45.949L92.7771 45.4342L92.2643 47.9437L94.7842 48.4586L95.297 45.949ZM91.8161 50.1113L94.336 50.6261L93.8233 53.1357L91.3033 52.6208L91.8161 50.1113ZM93.3751 55.3032L90.8551 54.7883L90.3424 57.2979L92.8623 57.8127L93.3751 55.3032ZM89.8941 59.4654L92.4141 59.9803L91.9012 62.4899L89.3813 61.975L89.8941 59.4654ZM91.5544 64.7588L89.0345 64.2439L88.5218 66.7535L91.0417 67.2684L91.5544 64.7588Z" fill="#00606D"/>
<path d="M82.9858 42.6962C85.0859 42.6962 86.7884 40.9937 86.7884 38.8936C86.7884 36.7934 85.0859 35.0909 82.9858 35.0909C80.8856 35.0909 79.1831 36.7934 79.1831 38.8936C79.1831 40.9937 80.8856 42.6962 82.9858 42.6962Z" fill="#DB4137"/>
<path d="M84.6589 31.4403C86.8991 31.4403 88.7151 29.6243 88.7151 27.3841C88.7151 25.144 86.8991 23.3279 84.6589 23.3279C82.4187 23.3279 80.6027 25.144 80.6027 27.3841C80.6027 29.6243 82.4187 31.4403 84.6589 31.4403Z" fill="#254957"/>
<path d="M77.8141 27.3334L90.8953 29.97V34.0261L75.9888 31.2375L77.8141 27.3334Z" fill="#285157"/>
<path fill-rule="evenodd" clip-rule="evenodd" d="M78.1129 26.7018C77.7286 26.6295 77.3584 26.8824 77.286 27.2667C77.2137 27.651 77.4666 28.0213 77.8509 28.0936L90.6067 30.4944C90.991 30.5667 91.3612 30.3138 91.4335 29.9295C91.506 29.5452 91.2529 29.1749 90.8686 29.1026L78.1129 26.7018ZM76.8509 30.3969C76.3354 30.2905 75.8313 30.6223 75.725 31.1377C75.6187 31.6533 75.9505 32.1574 76.4659 32.2637L90.295 35.1155C90.8104 35.2218 91.3146 34.8901 91.4209 34.3746C91.5271 33.8591 91.1955 33.3551 90.6799 33.2487L76.8509 30.3969Z" fill="#254957"/>
<path d="M84.8617 27.8912C85.7578 27.8912 86.4842 27.1648 86.4842 26.2687C86.4842 25.3726 85.7578 24.6462 84.8617 24.6462C83.9657 24.6462 83.2393 25.3726 83.2393 26.2687C83.2393 27.1648 83.9657 27.8912 84.8617 27.8912Z" fill="#676487"/>
<path fill-rule="evenodd" clip-rule="evenodd" d="M83.9082 38.287L84.2215 36.5663L82.757 36.2996L82.4443 38.017L80.7155 37.6983L80.4482 39.1485L82.18 39.4677L81.8643 41.2015L83.3288 41.4682L83.6439 39.7375L85.3481 40.0517L85.6154 38.6016L83.9082 38.287Z" fill="white"/>
<path d="M30.3567 53.0902H35.0213L37.7592 50.3016L43.8942 56.3859L41.9168 65.9179L33.6524 66.4756L30.3567 53.0902Z" fill="#DADCE2"/>
<path fill-rule="evenodd" clip-rule="evenodd" d="M37.81 50.2509L47.2406 44.9271L43.8158 56.3859L37.81 50.2509ZM37.81 50.3016L28.1765 44.9778L31.675 56.4366L37.81 50.3016Z" fill="#C7D2CC"/>
<path fill-rule="evenodd" clip-rule="evenodd" d="M27.923 56.8929L24.9823 56.1831L27.2639 46.2454L28.3286 45.3835L30.7623 53.3944L33.6524 66.4756L28.8356 66.8813L25.6921 60.0364L27.923 56.8929ZM41.7647 66.0193L43.083 66.1714L43.4379 67.1348L47.0885 66.1714L49.6743 60.5435L48.0011 57.7041L50.4855 56.0817L48.3053 46.0933L46.8857 45.9412L43.8435 56.4873L41.7647 66.0193Z" fill="#EDEDEC"/>
<path d="M18.1881 79.7597L18.3402 77.833L37.2015 74.2838L43.6407 78.3907L37.6071 84.4243L18.1881 79.7597Z" fill="#EDEDEC"/>
<g filter="url(#filter3_d)">
<path d="M24.1203 47.513C25.0127 47.513 25.8103 47.2425 26.0977 47.1073H26.9089L24.5259 56.0817L27.7202 56.8929L25.9456 60.8984L28.8356 66.8813L41.6633 65.9179L42.2718 77.5288C33.534 78.2554 14.7809 79.5873 9.67011 79.1005C4.55931 78.6138 3.78863 74.2669 4.04214 72.1543C6.17164 66.7799 10.8058 55.1589 12.3066 51.6706C13.8074 48.1822 16.4473 47.4453 17.5797 47.513H24.1203Z" fill="white"/>
</g>
<g filter="url(#filter4_d)">
<path d="M34.7171 78.7963L18.1881 79.709V84.4243H37.5564L34.7171 78.7963Z" fill="#FDFDFE"/>
</g>
<path d="M43.7928 66.932L44.1985 64.3969H45.0097L44.7562 66.3235L43.7928 66.932Z" fill="#BDBBB8"/>
<path d="M52.4122 76.7175C52.2094 77.042 51.6517 77.2245 51.3982 77.2752V77.9851C52.4122 78.0256 53.1051 77.1569 53.3249 76.7175C53.1051 76.5822 52.615 76.393 52.4122 76.7175Z" fill="#BDBBB8"/>
<path fill-rule="evenodd" clip-rule="evenodd" d="M24.2217 57.5013C23.5288 53.631 24.0088 45.3632 31.4722 43.254H44.2492C47.3251 44.1159 53.1119 47.9186 51.6517 56.2338C53.2235 56.538 56.2048 58.8196 55.5558 65.5123H54.3389C54.6769 62.9265 54.4505 57.6737 50.8405 57.3492C49.5222 57.045 46.5409 58.0692 45.1618 64.5997L43.9956 64.4475C44.4013 61.6927 46.2671 56.1628 50.4855 56.0817C51.0602 52.7184 50.6174 45.8094 44.2492 45.0793C37.8809 44.3491 31.8947 44.9102 29.6976 45.2821C27.754 46.1778 24.1507 49.8453 25.2865 57.3492L24.2217 57.5013ZM25.3372 64.194C27.2414 64.194 28.7849 62.6731 28.7849 60.797C28.7849 58.9208 27.2414 57.3999 25.3372 57.3999C23.433 57.3999 21.8894 58.9208 21.8894 60.797C21.8894 62.6731 23.433 64.194 25.3372 64.194ZM51.4844 77.5056C51.576 78.0326 51.0265 78.5683 50.257 78.7021C49.4875 78.8359 48.7894 78.5171 48.6978 77.9901C48.6062 77.4631 49.1557 76.9275 49.9252 76.7938C50.6947 76.6599 51.3928 76.9786 51.4844 77.5056ZM44.7626 77.7452C45.4101 78.1818 46.1775 78.1762 46.4765 77.7328C46.7756 77.2892 46.493 76.5758 45.8455 76.1391C45.1979 75.7025 44.4305 75.708 44.1314 76.1516C43.8324 76.595 44.115 77.3085 44.7626 77.7452Z" fill="#050000"/>
<path fill-rule="evenodd" clip-rule="evenodd" d="M37.6578 43.0005V17.5986C39.331 17.8014 43.7016 17.5479 47.7983 14.9114L49.2687 22.0097L50.5941 25.208C50.6028 24.6329 50.6914 23.9948 50.8677 23.3385C51.4311 21.2416 52.6769 19.7538 53.6503 20.0154C54.6236 20.2769 54.9559 22.1888 54.3925 24.2856C53.8291 26.3825 52.5833 27.8703 51.6099 27.6087C51.602 27.6066 51.5941 27.6043 51.5862 27.602L51.601 27.6376C48.3966 39.8873 40.9704 42.9835 37.6578 43.0005ZM94.0107 52.5203C94.1442 51.4285 95.1377 50.6516 96.2296 50.7852L101.625 51.4454C102.717 51.579 103.494 52.5725 103.36 53.6643C103.226 54.7562 102.233 55.533 101.141 55.3994L95.7458 54.7393C94.6539 54.6056 93.877 53.6123 94.0107 52.5203ZM94.6357 56.7404C94.7693 55.6486 95.7627 54.8717 96.8547 55.0054L102.25 55.6655C103.342 55.799 104.119 56.7925 103.985 57.8844C103.851 58.9763 102.858 59.7531 101.766 59.6195L96.3709 58.9593C95.2789 58.8258 94.5021 57.8323 94.6357 56.7404ZM96.0038 58.9468C94.919 58.7645 93.8918 59.4962 93.7096 60.581C93.5274 61.6658 94.2591 62.6929 95.3439 62.8752L100.704 63.7755C101.789 63.9578 102.816 63.2261 102.999 62.1413C103.181 61.0565 102.449 60.0294 101.364 59.8471L96.0038 58.9468ZM92.3913 64.5358C92.5736 63.4509 93.6007 62.7193 94.6855 62.9015L100.046 63.8019C101.131 63.9841 101.863 65.0113 101.68 66.0961C101.498 67.1809 100.471 67.9125 99.3861 67.7303L94.0257 66.83C92.9408 66.6477 92.2091 65.6206 92.3913 64.5358Z" fill="#E6C19B"/>
<path fill-rule="evenodd" clip-rule="evenodd" d="M37.6578 43.0512V17.5986C33.3583 17.3146 30.0525 15.6042 28.937 14.7085C28.5314 18.6836 26.1314 22.4491 24.9822 23.835L24.9437 23.9474C24.9017 23.7232 24.8492 23.4952 24.7859 23.2651C24.1892 21.0956 22.8608 19.5693 21.8189 19.8558C20.777 20.1424 20.416 22.1334 21.0126 24.3028C21.5531 26.2682 22.6941 27.7057 23.6788 27.7457C26.851 40.0286 34.3166 43.068 37.6578 43.0512ZM31.827 40.9724V42.8483C31.2524 43.6089 29.9308 45.2314 29.2412 45.637L37.8099 50.3016L46.48 45.637L45.466 44.7243C42.745 45.1468 36.2077 44.988 31.827 40.9724Z" fill="#F5D0A9"/>
<path d="M43.7421 67.0334C43.5393 67.1145 43.421 67.1348 43.3872 67.1348L43.7928 76.2105C44.6041 76.1294 45.8209 76.6161 46.3279 76.8696L52.2094 76.6161C54.6431 76.2105 54.8966 77.0724 55.6065 75.7035C56.1743 74.6083 55.2009 73.9964 54.6431 73.8275C56.1439 73.868 56.6543 73.4049 56.7219 73.1683C57.2492 71.8704 56.367 71.1403 55.86 70.9374L57.0768 70.836V70.3797C58.8616 69.5685 58.1247 68.3516 57.5332 67.8446V67.5404L62.6034 67.3883C64.1752 66.8813 63.4653 65.0053 62.6034 64.6503C61.7415 64.2954 49.6743 66.932 52.5136 65.0053C55.353 63.0786 55.4544 62.673 54.998 61.9124C54.633 61.304 54.0685 61.3885 53.8319 61.5068C51.0095 62.994 45.2632 66.0092 44.8576 66.1714C44.3506 66.3742 43.9956 66.932 43.7421 67.0334Z" fill="#E7C19C"/>
<path d="M25.3372 63.7884C26.9613 63.7884 28.2779 62.4718 28.2779 60.8477C28.2779 59.2236 26.9613 57.907 25.3372 57.907C23.7131 57.907 22.3964 59.2236 22.3964 60.8477C22.3964 62.4718 23.7131 63.7884 25.3372 63.7884Z" fill="#EDEEED"/>
<path d="M25.3372 63.0786C26.6253 63.0786 27.6695 62.0571 27.6695 60.797C27.6695 59.5369 26.6253 58.5154 25.3372 58.5154C24.0491 58.5154 23.0049 59.5369 23.0049 60.797C23.0049 62.0571 24.0491 63.0786 25.3372 63.0786Z" fill="#BCBBB8"/>
<path d="M45.5167 44.775C37.6071 45.5052 33.0609 42.5103 31.7764 40.9217C36.6438 44.2477 41.7647 42.1554 43.3365 40.9217C43.3771 42.3819 44.5534 44.2511 45.5167 44.775Z" fill="#DBB795"/>
<path fill-rule="evenodd" clip-rule="evenodd" d="M37.8607 50.3016L35.0213 53.0902L35.8326 54.2057L34.5143 66.4249L40.7 65.9179L39.4324 54.2057L40.4465 52.9381L37.8607 50.3016ZM36.1368 77.9851L39.1282 77.833L37.6071 84.4243L36.1368 77.9851Z" fill="#3C577A"/>
<path d="M43.3872 67.2362C43.3061 65.9382 42.1704 66.0193 41.6126 66.2221L42.3225 76.7682C43.2959 76.9305 43.7084 76.3626 43.7928 76.0584C43.6914 73.6584 43.4683 68.5342 43.3872 67.2362Z" fill="white"/>
<path d="M18.4924 65.2081L17.3769 67.6925H18.4924V65.2081Z" fill="#8B89A6"/>
<defs>
<filter id="filter0_d" x="31.0213" y="42.4482" width="45.5704" height="45.9761" filterUnits="userSpaceOnUse" color-interpolation-filters="sRGB">
<feFlood flood-opacity="0" result="BackgroundImageFix"/>
<feColorMatrix in="SourceAlpha" type="matrix" values="0 0 0 0 0 0 0 0 0 0 0 0 0 0 0 0 0 0 127 0"/>
<feOffset/>
<feGaussianBlur stdDeviation="2"/>
<feColorMatrix type="matrix" values="0 0 0 0 0 0 0 0 0 0 0 0 0 0 0 0 0 0 0.25 0"/>
<feBlend mode="normal" in2="BackgroundImageFix" result="effect1_dropShadow"/>
<feBlend mode="normal" in="SourceGraphic" in2="effect1_dropShadow" result="shape"/>
</filter>
<filter id="filter1_d" x="17.8894" y="0" width="40.1516" height="31.8405" filterUnits="userSpaceOnUse" color-interpolation-filters="sRGB">
<feFlood flood-opacity="0" result="BackgroundImageFix"/>
<feColorMatrix in="SourceAlpha" type="matrix" values="0 0 0 0 0 0 0 0 0 0 0 0 0 0 0 0 0 0 127 0"/>
<feOffset/>
<feGaussianBlur stdDeviation="2"/>
<feColorMatrix type="matrix" values="0 0 0 0 0 0 0 0 0 0 0 0 0 0 0 0 0 0 0.25 0"/>
<feBlend mode="normal" in2="BackgroundImageFix" result="effect1_dropShadow"/>
<feBlend mode="normal" in="SourceGraphic" in2="effect1_dropShadow" result="shape"/>
</filter>
<filter id="filter2_d" x="52.0208" y="21.9629" width="54.7567" height="62.6903" filterUnits="userSpaceOnUse" color-interpolation-filters="sRGB">
<feFlood flood-opacity="0" result="BackgroundImageFix"/>
<feColorMatrix in="SourceAlpha" type="matrix" values="0 0 0 0 0 0 0 0 0 0 0 0 0 0 0 0 0 0 127 0"/>
<feOffset/>
<feGaussianBlur stdDeviation="2"/>
<feColorMatrix type="matrix" values="0 0 0 0 0 0 0 0 0 0 0 0 0 0 0 0 0 0 0.25 0"/>
<feBlend mode="normal" in2="BackgroundImageFix" result="effect1_dropShadow"/>
<feBlend mode="normal" in="SourceGraphic" in2="effect1_dropShadow" result="shape"/>
</filter>
<filter id="filter3_d" x="0" y="43.1073" width="46.2718" height="40.0977" filterUnits="userSpaceOnUse" color-interpolation-filters="sRGB">
<feFlood flood-opacity="0" result="BackgroundImageFix"/>
<feColorMatrix in="SourceAlpha" type="matrix" values="0 0 0 0 0 0 0 0 0 0 0 0 0 0 0 0 0 0 127 0"/>
<feOffset/>
<feGaussianBlur stdDeviation="2"/>
<feColorMatrix type="matrix" values="0 0 0 0 0 0 0 0 0 0 0 0 0 0 0 0 0 0 0.25 0"/>
<feBlend mode="normal" in2="BackgroundImageFix" result="effect1_dropShadow"/>
<feBlend mode="normal" in="SourceGraphic" in2="effect1_dropShadow" result="shape"/>
</filter>
<filter id="filter4_d" x="14.1881" y="74.7963" width="27.3683" height="13.628" filterUnits="userSpaceOnUse" color-interpolation-filters="sRGB">
<feFlood flood-opacity="0" result="BackgroundImageFix"/>
<feColorMatrix in="SourceAlpha" type="matrix" values="0 0 0 0 0 0 0 0 0 0 0 0 0 0 0 0 0 0 127 0"/>
<feOffset/>
<feGaussianBlur stdDeviation="2"/>
<feColorMatrix type="matrix" values="0 0 0 0 0 0 0 0 0 0 0 0 0 0 0 0 0 0 0.25 0"/>
<feBlend mode="normal" in2="BackgroundImageFix" result="effect1_dropShadow"/>
<feBlend mode="normal" in="SourceGraphic" in2="effect1_dropShadow" result="shape"/>
</filter>
</defs>
</svg>
