<svg width="20" height="16" viewBox="0 0 20 16" fill="none" xmlns="http://www.w3.org/2000/svg">
<path d="M7.00027 8.00031C9.20973 8.00031 11.0004 6.20962 11.0004 4.00016C11.0004 1.7907 9.20973 0 7.00027 0C4.79081 0 3.00012 1.7907 3.00012 4.00016C3.00012 6.20962 4.79081 8.00031 7.00027 8.00031ZM9.80038 9.00035H9.27849C8.58471 9.31911 7.81281 9.50037 7.00027 9.50037C6.18774 9.50037 5.41896 9.31911 4.72206 9.00035H4.20016C1.88132 9.00035 0 10.8817 0 13.2005V14.5006C0 15.3287 0.671901 16.0006 1.50006 16.0006H10.091C10.016 15.7881 9.98477 15.5631 10.0098 15.335L10.2223 13.4318L10.2598 13.0849L10.5067 12.838L12.9224 10.4223C12.1567 9.55662 11.0473 9.00035 9.80038 9.00035V9.00035ZM11.2161 13.5412L11.0036 15.4475C10.9692 15.7662 11.2379 16.035 11.5536 15.9975L13.4568 15.785L17.7663 11.4754L15.5256 9.23474L11.2161 13.5412V13.5412ZM19.782 8.40345L18.5976 7.21903C18.307 6.9284 17.8319 6.9284 17.5413 7.21903L16.36 8.40033L16.2319 8.52846L18.4757 10.7692L19.782 9.46287C20.0727 9.16911 20.0727 8.69721 19.782 8.40345V8.40345Z" fill="#6B6B6B"/>
</svg>
