<svg width="20" height="17" viewBox="0 0 20 17" fill="none" xmlns="http://www.w3.org/2000/svg">
<path d="M18.4272 7.50088L19.8523 6.07571C20.0492 5.87881 20.0492 5.56003 19.8523 5.36313L19.1397 4.65055C18.9428 4.45365 18.6241 4.45365 18.4272 4.65055L17.002 6.07571L15.5768 4.65055C15.3799 4.45365 15.0611 4.45365 14.8642 4.65055L14.1517 5.36313C13.9548 5.56003 13.9548 5.87881 14.1517 6.07571L15.5768 7.50088L14.1517 8.92605C13.9548 9.12294 13.9548 9.44173 14.1517 9.63863L14.8642 10.3512C15.0611 10.5481 15.3799 10.5481 15.5768 10.3512L17.002 8.92605L18.4272 10.3512C18.6241 10.5481 18.9428 10.5481 19.1397 10.3512L19.8523 9.63863C20.0492 9.44173 20.0492 9.12294 19.8523 8.92605L18.4272 7.50088ZM7.00082 8.00094C9.21045 8.00094 11.0013 6.2101 11.0013 4.00047C11.0013 1.79083 9.21045 0 7.00082 0C4.79119 0 3.00035 1.79083 3.00035 4.00047C3.00035 6.2101 4.79119 8.00094 7.00082 8.00094ZM9.80115 9.00105H9.27921C8.58538 9.31984 7.81342 9.50111 7.00082 9.50111C6.18822 9.50111 5.41938 9.31984 4.72243 9.00105H4.20049C1.88147 9.00105 0 10.8825 0 13.2015V14.5017C0 15.3299 0.671954 16.0019 1.50018 16.0019H12.5015C13.3297 16.0019 14.0016 15.3299 14.0016 14.5017V13.2015C14.0016 10.8825 12.1202 9.00105 9.80115 9.00105Z" fill="#6B6B6B"/>
</svg>
